<svg width="82" height="94" viewBox="0 0 82 94" fill="none" xmlns="http://www.w3.org/2000/svg">
<path d="M40.403 0.0046385C50.1869 -0.17076 59.9845 4.62857 63.8836 14.3403L63.8916 14.3595L63.9012 14.3803C65.8707 18.5504 66.3794 23.1139 66.9821 27.8042L66.9837 27.8106C67.358 30.5181 67.7245 33.3335 68.6441 36.007L68.6505 36.0214L68.6537 36.0342C69.509 38.2419 70.815 40.2027 72.2544 42.0439C73.6714 43.8564 75.3084 45.657 76.7365 47.3946C79.6529 50.9432 81.9947 54.5626 81.8408 59.3869L81.8232 59.9147L81.8552 59.9243C81.8501 62.0645 81.0689 64.0633 79.8909 65.1151C79.2783 65.6617 78.5713 65.9453 77.7938 65.9037C77.0058 65.8611 75.1884 65.2634 74.1036 64.2991C73.3929 63.6375 73.1283 63.3309 72.4656 62.6611C71.8214 62.0099 71.7391 61.3083 71.4482 60.5994C71.1035 59.7039 71.1458 58.7392 71.0963 57.5585L71.0947 57.5553L70.9763 54.7736C70.9297 53.8334 70.8679 52.8862 70.7619 51.9567L70.7603 51.9439L70.7571 51.9327C70.7375 51.8008 70.6643 51.2625 70.5364 50.8722C70.5033 50.7713 70.4572 50.6496 70.3924 50.5362C70.3439 50.4514 70.207 50.2271 69.9349 50.1203C69.7749 50.0578 69.592 50.046 69.4151 50.0995C69.2512 50.1493 69.1337 50.2427 69.0584 50.3187C68.9185 50.4599 68.8324 50.6367 68.7768 50.773L68.7496 50.8418L68.7352 50.9137C68.162 54.0784 67.8079 57.4531 67.4284 60.8281C67.0476 64.2143 66.6417 67.6111 65.9679 70.872C64.6223 77.3834 62.2271 83.2554 56.9509 87.3144C55.6383 88.1591 54.0607 88.2824 52.4816 87.9367L51.8914 87.8055C51.3647 87.6725 50.9825 87.526 50.7125 87.372C50.3698 87.1763 50.2419 86.9877 50.1862 86.8169C50.123 86.6223 50.1157 86.3316 50.2342 85.8716C50.3523 85.4135 50.5753 84.8603 50.8868 84.1744L50.8964 84.1552L50.9028 84.1344C51.4588 82.6753 52.1388 80.9291 52.648 79.1532C53.1555 77.3828 53.5117 75.5202 53.3934 73.8185L53.387 73.7145L53.3502 73.6186L53.2974 73.497C53.2245 73.3546 53.0865 73.1639 52.8351 73.0683C52.4491 72.9218 52.1367 73.1138 52.0161 73.2091C51.8857 73.3125 51.7907 73.4423 51.7282 73.5354C51.6596 73.6376 51.5964 73.7499 51.5411 73.8569C51.4304 74.0711 51.3256 74.3121 51.2435 74.5064C51.1514 74.7245 51.0996 74.8534 51.0708 74.9111L51.0564 74.9398L51.0436 74.9702C49.3486 79.3169 47.386 83.7152 44.6372 87.156C41.9034 90.5778 38.4135 93.0262 33.643 93.5417L33.6223 93.5449L33.6031 93.5497C31.6774 93.8757 29.5985 94.0431 27.8093 93.6265L27.8029 93.6233L27.5357 93.5593C26.2494 93.2099 25.6899 92.5428 25.4882 91.7997C25.253 90.9309 25.455 89.7736 26.0305 88.5109L26.0353 88.4981C27.2247 85.7394 28.5853 82.8485 29.4505 79.865L29.4521 79.857C29.6556 79.1284 29.9745 77.8776 30.1751 76.6354C30.2753 76.0149 30.3482 75.3798 30.3607 74.8055C30.3727 74.2493 30.3303 73.6706 30.1447 73.2091L30.0407 72.9515L29.788 72.8332L29.6168 72.7724C29.2279 72.6798 28.9207 72.9051 28.8026 73.0155C28.6544 73.1543 28.5453 73.3302 28.4747 73.4554C28.3975 73.5924 28.3297 73.739 28.2764 73.8553C28.2158 73.9875 28.1822 74.0634 28.1548 74.1176L28.1468 74.132L28.1404 74.148C27.6382 75.2763 27.1857 76.4468 26.7439 77.6112C26.3002 78.7809 25.8681 79.9436 25.3939 81.0823C24.4531 83.3411 23.371 85.4509 21.8187 87.204C21.3397 87.6032 20.7454 87.8099 20.0288 87.9415C19.6629 88.0086 19.2839 88.0545 18.8819 88.103C18.6853 88.1267 18.4818 88.1514 18.2772 88.1798L17.6614 88.279C16.2302 88.5116 14.1198 88.9696 12.1283 89.0068C11.135 89.0253 10.2279 88.9371 9.49537 88.6869C8.78286 88.4432 8.27038 88.0592 7.96615 87.5C7.77038 87.0309 7.79941 86.447 8.01893 85.7612C8.23946 85.0728 8.61963 84.3775 8.9883 83.7505C14.9855 74.2069 14.6954 62.1034 13.2081 51.52L13.2033 51.4944L13.2001 51.472L13.1281 51.1681C13.055 50.8767 12.9711 50.6224 12.8609 50.4403C12.8085 50.3536 12.6034 50.0309 12.1891 50.0036C11.7366 49.9741 11.5001 50.3151 11.4437 50.4035C11.2978 50.6323 11.2193 50.9592 11.1686 51.2129C11.1101 51.5054 11.0604 51.8581 11.0182 52.2286C10.8564 53.6491 10.782 55.5574 10.7879 56.0261C10.7057 57.6542 10.7023 59.1277 10.2664 60.5146C10.0907 61.0534 9.88244 62.1239 9.40269 62.6611C8.91348 63.2088 8.58369 63.4801 7.92202 63.9921C7.26321 64.6356 6.90191 64.6876 6.1267 65.1181C5.45457 65.4912 4.18723 65.9685 3.52404 65.8861L3.23931 65.8333C2.32358 65.5946 1.57197 64.923 1.01745 63.9921C0.460912 63.0577 0.138828 61.9173 0.0688833 60.8809V60.8601L0.0192954 60.2267C-0.320785 53.7172 3.88651 48.0943 8.53241 43.4628L8.5468 43.45L8.5596 43.434C10.0704 41.7493 11.4398 39.7383 12.3395 37.8002L12.3411 37.797C14.0644 34.0382 14.5803 30.1803 15.0668 26.4206C15.5568 22.6339 16.0172 18.9449 17.5718 15.3337L17.583 15.3097L17.591 15.2841C21.0488 5.32485 30.6205 0.180333 40.403 0.0046385ZM59.2256 25.24C58.8621 23.8787 57.9382 23.3428 56.5478 23.5829C56.3281 23.6212 56.1041 23.6488 55.892 23.714C52.4783 24.7721 49.3834 26.4533 46.5759 28.652C45.4457 29.5372 45.2805 30.392 45.8273 31.7073C47.3592 35.3886 52.7867 38.3392 57.0805 33.9915C58.838 32.2134 59.4281 29.9511 59.5295 27.19V27.1868C59.4645 26.7469 59.4205 25.9732 59.2256 25.24ZM25.4579 23.6228C23.7136 23.258 22.6883 23.9845 22.4186 25.7455C22.1012 27.8191 22.3434 29.841 23.2056 31.7456C24.4296 34.4455 26.5206 35.9568 29.4217 36.1414L29.4249 36.1398C32.0847 36.0493 34.0069 34.8096 35.3914 32.7246C36.8813 30.4797 36.4209 29.4374 34.5772 28.1161C32.393 26.5491 30.0378 25.2789 27.5533 24.2611C26.8783 23.9865 26.1692 23.7726 25.4579 23.6228Z" fill="#13071E"/>
</svg>
